<?xml version="1.0" standalone="no"?>
<!DOCTYPE svg PUBLIC "-//W3C//DTD SVG 20010904//EN"
 "http://www.w3.org/TR/2001/REC-SVG-20010904/DTD/svg10.dtd">
<svg version="1.0" xmlns="http://www.w3.org/2000/svg"
 width="387.000000pt" height="387.000000pt" viewBox="0 0 387.000000 387.000000"
 preserveAspectRatio="xMidYMid meet">
<metadata>
Created by potrace 1.14, written by Peter Selinger 2001-2017
</metadata>
<g transform="translate(0.000000,387.000000) scale(0.100000,-0.100000)"
fill="#000000" stroke="none">
<path d="M1750 3860 c-14 -4 -35 -5 -48 -4 -12 2 -22 1 -22 -4 0 -4 -12 -8
-27 -8 -74 -3 -103 -8 -103 -16 0 -5 -4 -7 -9 -3 -5 3 -12 1 -15 -4 -3 -5 -15
-7 -25 -4 -10 3 -22 0 -25 -5 -3 -6 -15 -8 -26 -5 -11 3 -20 1 -20 -5 0 -5 -8
-9 -17 -9 -28 0 -83 -15 -79 -22 2 -3 -7 -7 -21 -8 -14 0 -28 -5 -32 -10 -3
-4 -17 -9 -31 -11 -13 -1 -28 -8 -32 -15 -4 -6 -8 -8 -8 -3 0 5 -7 2 -17 -5
-9 -8 -19 -13 -22 -12 -3 1 -26 -8 -51 -19 -25 -12 -48 -20 -52 -20 -5 1 -8
-2 -8 -8 0 -5 -6 -10 -14 -10 -8 0 -22 -7 -30 -16 -9 -8 -16 -13 -16 -10 0 7
-100 -53 -118 -71 -7 -7 -18 -13 -24 -13 -6 0 -19 -10 -29 -22 -11 -11 -19
-18 -19 -14 0 4 -6 1 -14 -6 -8 -7 -26 -22 -42 -33 -70 -51 -242 -216 -304
-293 -19 -24 -47 -59 -63 -77 -15 -18 -27 -37 -27 -43 0 -5 -7 -13 -16 -16 -9
-4 -14 -9 -11 -12 3 -4 -3 -15 -14 -27 -10 -11 -19 -27 -19 -34 0 -7 -4 -13
-8 -13 -10 0 -37 -50 -34 -62 1 -5 -2 -8 -7 -8 -10 0 -27 -39 -23 -52 1 -5 -2
-8 -8 -8 -8 0 -48 -78 -54 -105 -1 -5 -12 -29 -24 -52 -12 -24 -21 -46 -20
-50 0 -5 -4 -21 -11 -38 -7 -16 -14 -37 -16 -45 -2 -8 -4 -16 -5 -17 -2 -2 -3
-6 -5 -10 -1 -5 -5 -15 -8 -23 -3 -8 -8 -28 -9 -45 -2 -16 -6 -32 -9 -35 -4
-3 -10 -21 -13 -40 -3 -19 -10 -49 -15 -66 -6 -22 -5 -36 2 -44 9 -10 9 -11 0
-6 -7 4 -12 -1 -12 -11 0 -10 -3 -34 -6 -53 -3 -19 -8 -111 -10 -205 -3 -125
-1 -171 8 -177 8 -5 8 -8 1 -8 -7 0 -9 -15 -4 -45 4 -25 5 -45 3 -45 -2 0 1
-10 8 -21 9 -17 8 -20 -2 -14 -7 5 -10 4 -6 -2 3 -5 9 -25 12 -44 3 -19 11
-56 17 -84 7 -27 11 -55 10 -62 -2 -6 2 -14 7 -18 6 -3 8 -12 5 -19 -3 -8 0
-17 5 -21 6 -3 9 -11 6 -16 -4 -5 -1 -9 5 -9 6 0 9 -4 6 -9 -5 -7 21 -85 70
-213 10 -27 22 -48 26 -48 4 0 8 -9 8 -19 0 -11 6 -26 13 -33 6 -7 13 -19 15
-26 1 -7 13 -31 27 -52 14 -22 25 -42 25 -45 0 -6 93 -146 115 -174 8 -9 35
-42 60 -73 25 -32 50 -58 56 -58 5 0 9 -5 9 -11 0 -16 163 -168 173 -162 4 2
6 1 5 -4 -2 -4 1 -10 7 -13 5 -3 21 -15 35 -28 43 -39 54 -48 85 -68 17 -10
32 -21 35 -25 5 -5 120 -76 165 -101 11 -6 27 -15 35 -20 8 -4 26 -13 40 -19
14 -5 43 -18 65 -28 57 -26 79 -34 87 -33 5 1 8 -3 8 -10 0 -6 3 -9 6 -6 3 4
22 -1 42 -9 20 -9 51 -19 67 -24 17 -4 48 -13 70 -19 86 -23 90 -24 159 -34
22 -4 53 -9 70 -13 17 -4 130 -6 251 -6 252 1 314 3 320 13 2 3 18 5 34 4 17
-1 31 1 31 5 0 4 8 7 18 7 35 1 94 14 115 26 12 6 22 10 22 8 0 -2 24 3 53 10
28 8 52 18 52 22 0 5 4 6 10 3 5 -3 28 3 52 15 23 11 45 20 49 20 28 0 306
150 320 172 3 5 8 8 10 7 5 -4 94 56 119 80 10 9 33 27 51 41 55 41 230 220
284 290 27 36 52 67 55 70 9 8 37 55 36 60 -1 3 9 16 20 28 12 13 30 40 40 60
11 20 21 39 24 42 11 11 65 124 63 132 -2 4 2 8 8 8 5 0 7 5 4 10 -3 6 -1 10
4 10 6 0 10 3 9 8 -1 6 7 29 29 82 3 8 7 20 9 25 2 6 10 29 19 53 8 24 16 51
18 60 1 9 5 22 9 27 5 9 33 129 42 185 3 14 5 25 6 25 8 0 14 132 13 315 0
223 -2 276 -12 295 -3 5 -6 23 -7 40 -1 16 -2 30 -3 30 -2 0 -4 9 -6 20 -2 11
-7 36 -11 55 -4 19 -8 41 -10 48 -8 39 -69 218 -76 220 -4 2 -8 10 -8 18 0 8
-14 45 -31 82 -16 37 -29 69 -29 71 1 2 -2 7 -7 10 -4 3 -17 24 -29 46 -49 93
-60 110 -71 118 -7 4 -13 15 -13 22 0 8 -4 15 -10 15 -5 0 -10 5 -10 10 0 11
-10 24 -42 61 -10 10 -18 21 -18 24 0 6 -44 58 -87 103 -18 19 -33 36 -33 39
0 2 -25 28 -55 58 -30 29 -55 52 -55 50 0 -1 -24 20 -52 46 -29 27 -56 49 -60
49 -4 0 -18 9 -30 19 -13 11 -34 29 -47 40 -23 20 -36 25 -54 22 -5 -1 -6 3
-2 9 3 5 -1 10 -9 10 -9 0 -16 5 -16 10 0 6 -5 10 -11 10 -6 0 -17 7 -26 16
-9 8 -23 12 -31 9 -9 -3 -13 -3 -9 1 10 10 -91 66 -105 58 -6 -4 -8 -3 -5 3 8
12 -20 26 -34 17 -5 -3 -9 -1 -9 3 0 5 -19 17 -42 27 -45 20 -230 84 -257 90
-9 2 -24 6 -34 11 -9 4 -26 5 -37 2 -11 -3 -18 -1 -14 4 3 5 -3 9 -13 10 -10
0 -27 2 -38 4 -11 3 -38 7 -60 10 -22 3 -56 8 -75 11 -58 8 -393 11 -420 4z"/>
</g>
</svg>
